#!OML:ASF X:\für Bonn\!DataBase\2005_08_10_Bjorn_Final\c3d\bjorn.ASF
:FULLY-SPECIFIED
:DEGREES
31
root -21.6157 19.4612 0.213571 -346.784 -87.7511 -6.67086
lowerback -12.2886 1.97438 -3.0039
upperback 4.24071 3.50437 -3.84078
thorax 11.6307 1.58589 -1.72811
lowerneck -0.543096 -4.2963 2.6448
upperneck -0.913685 -5.83705 -6.28837
head -0.475287 -2.92805 -2.40332
rclavicle 1.98785e-015 5.08889e-014
rhumerus -33.0285 -9.20636 -84.8674
rradius 91.4694
rwrist -5.8844
rhand -21.1553 14.5178
rfingers 7.12502
rthumb 5.22438 -15.3978
lclavicle 1.98785e-015 5.08889e-014
lhumerus -29.7816 20.1978 78.5571
lradius 19.9385
lwrist -42.5238
lhand -14.2584 -8.34051
lfingers 7.12502
lthumb 11.8799 21.3025
rfemur -13.5531 -15.2129 17.3071
rtibia 24.7635
rfoot -9.69528 18.727
rtoes 4.48228
lfemur -13.5166 13.4019 -17.4624
ltibia 24.3976
lfoot -8.63411 -17.4494
ltoes 3.55941
32
root -21.6145 19.4612 0.214476 -345.636 -87.847 -7.84089
lowerback -12.3729 2.03283 -3.06155
upperback 4.23806 3.6039 -3.92182
thorax 11.6829 1.63073 -1.76035
lowerneck -0.534845 -4.35774 2.63525
upperneck -0.929382 -5.91912 -6.25316
head -0.484055 -2.96857 -2.38874
rclavicle -3.91606e-014 1.59028e-015
rhumerus -31.2574 -8.83764 -84.2717
rradius 92.6579
rwrist -5.6311
rhand -22.0519 14.914
rfingers 7.12502
rthumb 4.35861 -15.0211
lclavicle -3.91606e-014 1.59028e-015
lhumerus -29.6462 20.7437 78.3062
lradius 19.6917
lwrist -42.3803
lhand -14.0634 -8.34997
lfingers 7.12502
lthumb 12.0679 21.282
rfemur -13.5529 -15.2315 17.3306
rtibia 24.7624
rfoot -9.59851 18.8391
rtoes 4.65809
lfemur -13.481 13.4918 -17.4334
ltibia 24.3953
lfoot -8.66955 -17.4258
ltoes 3.42998
33
root -21.6129 19.4614 0.214632 -344.514 -87.9352 -8.99946
lowerback -12.4441 2.08439 -3.12353
upperback 4.24232 3.69511 -4.01061
thorax 11.7355 1.67147 -1.80083
lowerneck -0.569496 -4.40978 2.65068
upperneck -0.901068 -5.9869 -6.2245
head -0.472 -3.00318 -2.3826
rclavicle 9.93923e-015 2.06736e-014
rhumerus -29.3731 -8.49528 -83.6764
rradius 93.7614
rwrist -5.27679
rhand -22.8478 15.0421
rfingers 7.12502
rthumb 3.59005 -14.9074
lclavicle 9.93923e-015 2.06736e-014
lhumerus -29.495 21.3591 78.0059
lradius 19.4095
lwrist -42.304
lhand -13.8892 -8.34709
lfingers 7.12502
lthumb 12.236 21.275
rfemur -13.5295 -15.1809 17.3495
rtibia 24.7628
rfoot -9.56794 18.8748
rtoes 4.7244
lfemur -13.4308 13.5749 -17.3972
ltibia 24.3917
lfoot -8.67624 -17.4138
ltoes 3.50532
34
root -21.6113 19.461 0.215426 -343.566 -88.0348 -9.98441
lowerback -12.5053 2.14856 -3.18846
upperback 4.23345 3.80278 -4.10225
thorax 11.7676 1.72015 -1.83925
lowerneck -0.558841 -4.47492 2.66261
upperneck -0.881932 -6.07227 -6.20442
head -0.471608 -3.04568 -2.37718
rclavicle -2.28602e-014 -1.90833e-014
rhumerus -27.4474 -8.23778 -83.0316
rradius 94.8779
rwrist -4.88222
rhand -23.5067 14.9297
rfingers 7.12502
rthumb 2.95379 -15.0296
lclavicle -2.28602e-014 -1.90833e-014
lhumerus -29.3577 22.0528 77.6703
lradius 19.0847
lwrist -42.3552
lhand -13.7558 -8.30144
lfingers 7.12502
lthumb 12.3645 21.3129
rfemur -13.5142 -15.2406 17.3521
rtibia 24.765
rfoot -9.46985 19.0323
rtoes 4.76344
lfemur -13.3782 13.6654 -17.377
ltibia 24.3866
lfoot -8.68566 -17.4019
ltoes 3.50916
35
root -21.6094 19.4607 0.215716 -342.121 -88.136 -11.4662
lowerback -12.5702 2.21365 -3.23833
upperback 4.22667 3.90993 -4.19762
thorax 11.8057 1.76975 -1.89017
lowerneck -0.5761 -4.54087 2.68389
upperneck -0.840578 -6.15735 -6.16243
head -0.458967 -3.08868 -2.36727
rclavicle -2.70347e-014 2.8625e-014
rhumerus -25.4273 -8.0042 -82.384
rradius 95.9072
rwrist -4.49045
rhand -24.1672 14.8475
rfingers 7.12502
rthumb 2.31588 -15.1197
lclavicle -2.70347e-014 2.8625e-014
lhumerus -29.209 22.6869 77.3371
lradius 18.763
lwrist -42.3768
lhand -13.693 -8.19879
lfingers 7.12502
lthumb 12.4251 21.4119
rfemur -13.4967 -15.1934 17.3706
rtibia 24.7678
rfoot -9.42178 19.0885
rtoes 4.88013
lfemur -13.3275 13.763 -17.3419
ltibia 24.3811
lfoot -8.70123 -17.3941
ltoes 3.46778
36
root -21.6073 19.4597 0.216152 -340.808 -88.2487 -12.8157
lowerback -12.6462 2.29118 -3.30174
upperback 4.23264 4.03763 -4.2936
thorax 11.8648 1.82762 -1.92918
lowerneck -0.62719 -4.61039 2.7376
upperneck -0.798048 -6.24865 -6.15752
head -0.442932 -3.1355 -2.37622
rclavicle -1.15295e-014 2.8625e-014
rhumerus -23.3681 -7.78136 -81.6764
rradius 96.6604
rwrist -4.14451
rhand -24.9222 15.0047
rfingers 7.12502
rthumb 1.58675 -14.9692
lclavicle -1.15295e-014 2.8625e-014
lhumerus -28.9852 23.4868 76.9583
lradius 18.3159
lwrist -42.6183
lhand -13.7245 -8.1351
lfingers 7.12502
lthumb 12.3947 21.4774
rfemur -13.4818 -15.1671 17.374
rtibia 24.7709
rfoot -9.356 19.1758
rtoes 4.93834
lfemur -13.2757 13.8687 -17.3217
ltibia 24.3773
lfoot -8.69716 -17.3681
ltoes 3.53197
37
root -21.6046 19.4595 0.216686 -339.02 -88.3476 -14.6415
lowerback -12.6907 2.3644 -3.34013
upperback 4.21449 4.15232 -4.39384
thorax 11.8795 1.88216 -1.99058
lowerneck -0.628408 -4.67823 2.75989
upperneck -0.760145 -6.33603 -6.10524
head -0.433876 -3.17925 -2.36266
rclavicle -4.77083e-015 4.77083e-015
rhumerus -21.3019 -7.57094 -80.9786
rradius 97.3453
rwrist -3.89074
rhand -25.6169 15.1389
rfingers 7.12502
rthumb 0.915713 -14.8389
lclavicle -4.77083e-015 4.77083e-015
lhumerus -28.8096 24.4445 76.4725
lradius 17.8123
lwrist -43.0984
lhand -13.8412 -8.08616
lfingers 7.12502
lthumb 12.2822 21.5331
rfemur -13.4653 -15.144 17.392
rtibia 24.772
rfoot -9.29229 19.255
rtoes 5.07672
lfemur -13.2263 13.9665 -17.287
ltibia 24.3745
lfoot -8.70238 -17.3573
ltoes 3.53593
38
root -21.6023 19.4592 0.217233 -337.514 -88.4514 -16.1841
lowerback -12.7565 2.43849 -3.39618
upperback 4.2079 4.27319 -4.49318
thorax 11.9193 1.93771 -2.03901
lowerneck -0.662944 -4.75128 2.79315
upperneck -0.685592 -6.42958 -6.07398
head -0.409079 -3.22704 -2.35936
rclavicle -2.5842e-014 -9.54166e-015
rhumerus -19.1843 -7.35062 -80.2555
rradius 97.9586
rwrist -3.79779
rhand -26.1702 15.2528
rfingers 7.12502
rthumb 0.381314 -14.7266
lclavicle -2.5842e-014 -9.54166e-015
lhumerus -28.6023 25.5769 75.9376
lradius 17.2259
lwrist -43.8132
lhand -14.1467 -8.09286
lfingers 7.12502
lthumb 11.9877 21.5439
rfemur -13.4524 -15.1104 17.393
rtibia 24.7782
rfoot -9.21991 19.3243
rtoes 5.21391
lfemur -13.175 14.0643 -17.2736
ltibia 24.3657
lfoot -8.71525 -17.3297
ltoes 3.49619
39
root -21.5996 19.4589 0.217767 -335.248 -88.5468 -18.4887
lowerback -12.8117 2.5135 -3.43076
upperback 4.19548 4.39045 -4.58918
thorax 11.9476 1.9933 -2.09683
lowerneck -0.696894 -4.81943 2.85126
upperneck -0.625593 -6.51805 -6.07145
head -0.390685 -3.27222 -2.36979
rclavicle 9.14409e-015 -2.70347e-014
rhumerus -17.0784 -7.09447 -79.5206
rradius 98.5201
rwrist -3.91363
rhand -26.6789 15.382
rfingers 7.12502
rthumb -0.109916 -14.5977
lclavicle 9.14409e-015 -2.70347e-014
lhumerus -28.4409 26.8817 75.3179
lradius 16.6274
lwrist -44.8011
lhand -14.4493 -8.06995
lfingers 7.12502
lthumb 11.6959 21.5836
rfemur -13.439 -15.1141 17.4111
rtibia 24.7809
rfoot -9.15447 19.4328
rtoes 5.30292
lfemur -13.1197 14.1621 -17.2375
ltibia 24.3591
lfoot -8.74448 -17.306
ltoes 3.4581
40
root -21.5968 19.4593 0.217553 -332.944 -88.6593 -20.83
lowerback -12.8609 2.59208 -3.49137
upperback 4.17785 4.51563 -4.67987
thorax 11.9641 2.05052 -2.13251
lowerneck -0.734511 -4.89023 2.86519
upperneck -0.541118 -6.60816 -6.03357
head -0.361172 -3.31834 -2.36127
rclavicle -2.3059e-014 -1.90833e-014
rhumerus -14.9866 -6.73051 -78.7368
rradius 98.9837
rwrist -4.10814
rhand -27.2749 15.5977
rfingers 7.12502
rthumb -0.685629 -14.3809
lclavicle -2.3059e-014 -1.90833e-014
lhumerus -28.3234 28.1541 74.7076
lradius 16.0816
lwrist -45.8534
lhand -14.775 -7.97618
lfingers 7.12502
lthumb 11.3817 21.6949
rfemur -13.4308 -15.1309 17.4156
rtibia 24.7851
rfoot -9.05364 19.5592
rtoes 5.44648
lfemur -13.0671 14.2744 -17.217
ltibia 24.351
lfoot -8.73127 -17.292
ltoes 3.60319
41
root -21.5941 19.4591 0.218247 -330.328 -88.763 -23.4824
lowerback -12.921 2.67681 -3.53322
upperback 4.16416 4.64758 -4.77688
thorax 11.9943 2.11238 -2.18364
lowerneck -0.74901 -4.96795 2.927
upperneck -0.486465 -6.70927 -6.02037
head -0.348168 -3.36935 -2.36816
rclavicle -4.01545e-014 7.95139e-014
rhumerus -12.9146 -6.3355 -77.9246
rradius 99.3497
rwrist -4.20957
rhand -27.8309 15.7924
rfingers 7.12502
rthumb -1.22257 -14.1838
lclavicle -4.01545e-014 7.95139e-014
lhumerus -28.2173 29.2789 74.1521
lradius 15.6035
lwrist -46.8513
lhand -15.0917 -7.82142
lfingers 7.12502
lthumb 11.0763 21.8663
rfemur -13.4224 -15.1396 17.4183
rtibia 24.7893
rfoot -8.98067 19.6798
rtoes 5.52061
lfemur -13.0163 14.3788 -17.1986
ltibia 24.3426
lfoot -8.74246 -17.2644
ltoes 3.56562
42
root -21.5909 19.4589 0.218144 -326.916 -88.8503 -26.933
lowerback -12.9553 2.76311 -3.57168
upperback 4.13492 4.7776 -4.86698
thorax 11.9908 2.17393 -2.23026
lowerneck -0.768506 -5.04529 3.00038
upperneck -0.391961 -6.80836 -6.02555
head -0.322913 -3.41978 -2.38395
rclavicle 9.54166e-015 4.77083e-015
rhumerus -10.8281 -5.94441 -77.0258
rradius 99.5969
rwrist -4.33495
rhand -28.1496 15.8841
rfingers 7.12502
rthumb -1.53036 -14.0902
lclavicle 9.54166e-015 4.77083e-015
lhumerus -28.1946 30.3109 73.6009
lradius 15.2433
lwrist -47.9548
lhand -15.359 -7.61608
lfingers 7.12502
lthumb 10.8185 22.0853
rfemur -13.4113 -15.1008 17.4382
rtibia 24.7987
rfoot -8.90939 19.7431
rtoes 5.6626
lfemur -12.9634 14.4764 -17.1659
ltibia 24.3302
lfoot -8.7495 -17.2372
ltoes 3.52807
43
root -21.5877 19.4588 0.217824 -323.079 -88.9547 -30.8081
lowerback -12.9919 2.85241 -3.61068
upperback 4.1049 4.91209 -4.96079
thorax 11.9886 2.23763 -2.27952
lowerneck -0.765694 -5.11563 3.01784
upperneck -0.3252 -6.89791 -5.97385
head -0.305432 -3.46463 -2.37019
rclavicle -2.10712e-014 -9.54166e-015
rhumerus -8.63902 -5.56977 -76.0975
rradius 99.677
rwrist -4.46778
rhand -28.2247 15.8004
rfingers 7.12502
rthumb -1.60296 -14.1733
lclavicle -2.10712e-014 -9.54166e-015
lhumerus -28.1723 31.1459 73.1284
lradius 14.9653
lwrist -48.8731
lhand -15.564 -7.35374
lfingers 7.12502
lthumb 10.6207 22.3579
rfemur -13.4052 -15.1025 17.4427
rtibia 24.8054
rfoot -8.83738 19.8633
rtoes 5.73141
lfemur -12.9116 14.5907 -17.1459
ltibia 24.3208
lfoot -8.75702 -17.2111
ltoes 3.48483
44
root -21.5841 19.458 0.21775 -318.722 -89.0457 -35.2089
lowerback -13.0175 2.93608 -3.66453
upperback 4.07603 5.03978 -5.04354
thorax 11.9787 2.29664 -2.31024
lowerneck -0.792206 -5.19082 3.10727
upperneck -0.222672 -6.99454 -6.00383
head -0.278028 -3.51403 -2.39742
rclavicle -1.82882e-014 2.38542e-014
rhumerus -6.43987 -5.19609 -75.0825
rradius 99.5602
rwrist -4.6759
rhand -28.2028 15.6704
rfingers 7.12502
rthumb -1.58175 -14.3035
lclavicle -1.82882e-014 2.38542e-014
lhumerus -28.1861 31.9834 72.6652
lradius 14.7472
lwrist -49.8625
lhand -15.7461 -7.0881
lfingers 7.12502
lthumb 10.445 22.6324
rfemur -13.3951 -15.0748 17.4469
rtibia 24.816
rfoot -8.76818 19.9437
rtoes 5.87154
lfemur -12.8523 14.6961 -17.1231
ltibia 24.3094
lfoot -8.74577 -17.2028
ltoes 3.54574
